HIERARCHY
ROOT Hips
{
	OFFSET 0.00000 0.00000 0.00000
	CHANNELS 6 Xposition Yposition Zposition Zrotation Yrotation Xrotation 
	JOINT LHipJoint
	{
		OFFSET 0 0 0
		CHANNELS 3 Zrotation Yrotation Xrotation
		JOINT LeftHip
		{
			OFFSET 1.36337 -1.57426 1.11036
			CHANNELS 3 Zrotation Yrotation Xrotation
			JOINT LeftKnee
			{
				OFFSET 2.38468 -6.55187 0.00000
				CHANNELS 3 Zrotation Yrotation Xrotation
				JOINT LeftAnkle
				{
					OFFSET 2.37166 -6.51609 0.00000
					CHANNELS 3 Zrotation Yrotation Xrotation
					JOINT LeftToe
					{
						OFFSET 0.29078 -0.79891 2.01393
						CHANNELS 3 Zrotation Yrotation Xrotation
						End Site
						{
							OFFSET 0.00000 -0.00000 1.07924
						}
					}
				}
			}
		}
	}
	JOINT RHipJoint
	{
		OFFSET 0 0 0
		CHANNELS 3 Zrotation Yrotation Xrotation
		JOINT RightHip
		{
			OFFSET -1.36349 -1.57426 1.11036
			CHANNELS 3 Zrotation Yrotation Xrotation
			JOINT RightKnee
			{
				OFFSET -2.29562 -6.30717 0.00000
				CHANNELS 3 Zrotation Yrotation Xrotation
				JOINT RightAnkle
				{
					OFFSET -2.40985 -6.62100 0.00000
					CHANNELS 3 Zrotation Yrotation Xrotation
					JOINT RightToe
					{
						OFFSET -0.23197 -0.63733 1.92232
						CHANNELS 3 Zrotation Yrotation Xrotation
						End Site
						{
							OFFSET -0.00000 -0.00000 1.01562
						}
					}
				}
			}
		}
	}
	JOINT lowerback
	{
		OFFSET 0 0 0
		CHANNELS 3 Zrotation Yrotation Xrotation
		JOINT Chest
		{
			OFFSET -0.08565 2.03602 -0.24562
			CHANNELS 3 Zrotation Yrotation Xrotation
			JOINT Chest2
			{
				OFFSET -0.00036 2.05693 0.00216
				CHANNELS 3 Zrotation Yrotation Xrotation
				JOINT lowerneck
				{
					OFFSET 0 0 0
					CHANNELS 3 Zrotation Yrotation Xrotation
					JOINT Neck
					{
						OFFSET -0.03664 1.69515 0.31789
						CHANNELS 3 Zrotation Yrotation Xrotation
						JOINT Head
						{
							OFFSET 0.00932 1.70181 -0.46013
							CHANNELS 3 Zrotation Yrotation Xrotation
							End Site
							{
								OFFSET 0.01243 1.77620 -0.19377
							}
						}
					}
				}
				JOINT LeftCollar
				{
					OFFSET 0 0 0
					CHANNELS 3 Zrotation Yrotation Xrotation
					JOINT LeftShoulder
					{
						OFFSET 3.74344 0.81315 -0.36647
CHANNELS 3 Zrotation Xrotation Yrotation
						JOINT LeftElbow
						{
OFFSET 0 -4.971850 -0.000000
CHANNELS 3 Zrotation Xrotation Yrotation
							JOINT LeftWrist
							{
OFFSET 0 -3.358110 0.000000
CHANNELS 3 Zrotation Xrotation Yrotation
								JOINT lhand
								{
									OFFSET 0 0 0
CHANNELS 3 Zrotation Xrotation Yrotation
									JOINT LFingers
									{
OFFSET 0 -0.622780 0.000000
CHANNELS 3 Zrotation Xrotation Yrotation
										End Site
										{
OFFSET 0 -0.502100 0.000000
										}
									}
								}
								JOINT LThumb
								{
OFFSET 0 0.000000 0.000000
CHANNELS 3 Zrotation Xrotation Yrotation
									End Site
									{
OFFSET 0 -0.509760 0.509760
									}
								}
							}
						}
					}
				}
				JOINT RightCollar
				{
					OFFSET 0 0 0
					CHANNELS 3 Zrotation Yrotation Xrotation
					JOINT RightShoulder
					{
						OFFSET -3.75385 0.50666 -0.06525
CHANNELS 3 Zrotation Xrotation Yrotation
						JOINT RightElbow
						{
OFFSET 0 -4.964930 -0.000000
CHANNELS 3 Zrotation Xrotation Yrotation
							JOINT RightWrist
							{
OFFSET 0 -3.349290 0.000000
CHANNELS 3 Zrotation Xrotation Yrotation
								JOINT rhand
								{
									OFFSET 0 0 0
CHANNELS 3 Zrotation Xrotation Yrotation
									JOINT RFingers
									{
OFFSET 0 -0.638040 0.000000
CHANNELS 3 Zrotation Xrotation Yrotation
										End Site
										{
OFFSET 0 -0.514410 0.000000
										}
									}
								}
								JOINT RThumb
								{
OFFSET 0 0.000000 0.000000
CHANNELS 3 Zrotation Xrotation Yrotation
									End Site
									{
OFFSET 0 -0.522260 0.522260
									}
								}
							}
						}
					}
				}
			}
		}
	}
}
MOTION
Frames: 9
Frame Time: 0.008333333333333333
-22.059600 16.618000 0.524600 -44.729800 89.267600 -41.144900 0.000000 0.000000 0.000000 -17.171500 -3.565000 -7.611800 2.522000 9.877900 28.582100 2.253800 10.346300 -33.572000 0.198100 2.865900 7.905600 0.000000 0.000000 0.000000 19.880600 6.426900 -1.636300 -1.112900 -6.702200 18.836000 -1.666000 23.638400 -26.660700 -0.266100 -3.318600 9.167100 -3.383300 -0.653900 -9.347500 1.144500 -0.543700 2.251800 3.032100 -0.451800 7.684900 -8.466800 -4.625400 -22.679900 5.308400 -4.872300 27.117300 2.651000 -2.193800 13.264300 -0.000000 0.000000 0.000000 -3.240200 -0.997800 -23.425200 14.140500 -22.935200 2.882600 19.688200 -4.871000 10.514200 0.000000 0.000000 0.000000 -7.125000 0.000000 0.000000 -5.204400 18.854200 -3.256700 -0.000000 0.000000 0.000000 -0.127400 -2.856000 11.986300 -13.357400 -21.808700 -2.584600 -9.385100 1.450000 31.135700 0.000000 0.000000 0.000000 7.125000 0.000000 -0.000000 25.425400 59.613200 -9.442400
-22.091761 16.650807 0.501622 -18.410215 90.433202 -14.182998 0.000000 0.000000 0.000000 -17.970625 -4.427529 -7.934302 2.400658 9.654885 27.866192 2.090478 10.687035 -32.860575 0.206183 2.923269 8.065207 0.000000 0.000000 0.000000 18.791911 4.978602 -2.969792 -1.116377 -6.712167 18.865488 -2.651047 17.332006 -30.020352 -0.230478 3.020694 -8.342257 -3.716364 -0.982258 -9.261188 0.925133 -0.934332 1.863301 2.926562 -0.637868 7.252712 -9.291038 -4.855613 -22.300118 5.899843 -5.110093 26.948033 2.980244 -2.307503 13.184854 0.000000 0.000000 0.000000 -3.204253 -0.733133 -23.432867 14.240612 -23.077683 2.921788 19.664271 -4.626673 10.134275 0.000000 0.000000 0.000000 -7.125000 0.000000 0.000000 -5.216414 19.255956 -3.217555 0.000000 0.000000 0.000000 -0.116044 -2.749520 12.007757 -13.341778 -21.785965 -2.578783 -9.191523 1.146318 30.104584 0.000000 0.000000 0.000000 7.125000 0.000000 0.000000 24.779320 58.645827 -8.602743
-22.131800 16.686086 0.481908 -34.453055 91.125461 -29.314153 0.000000 0.000000 0.000000 -18.593633 -5.498427 -8.537171 2.314156 9.491885 27.346387 2.041475 11.018362 -32.803064 0.162386 2.583262 7.121220 0.000000 0.000000 0.000000 17.877877 3.611250 -4.708715 -1.120045 -6.722779 18.896656 -3.238246 9.218360 -32.591277 -1.334717 7.304325 -20.625096 -3.970140 -1.246706 -9.403965 0.816260 -1.248808 1.390475 2.906586 -0.783619 6.858975 -8.328110 -4.537644 -22.637506 5.041354 -4.712830 27.631105 2.562756 -2.143012 13.444176 0.000000 0.000000 0.000000 -3.261698 -1.122818 -23.091589 13.668642 -22.255615 2.703503 19.977916 -4.464612 10.219068 0.000000 0.000000 0.000000 -7.125000 0.000000 0.000000 -4.995476 19.143668 -3.092137 0.000000 0.000000 0.000000 -0.245065 -2.621985 12.355055 -13.364886 -21.819509 -2.587338 -9.111833 1.004012 30.000706 0.000000 0.000000 0.000000 7.125000 0.000000 0.000000 24.777999 58.534932 -8.535292
-22.133325 16.687123 0.476035 -45.129285 91.370526 -40.033095 0.000000 0.000000 0.000000 -18.991570 -5.365333 -8.453396 2.285935 9.437873 27.174997 1.995834 11.071620 -32.572497 0.224019 3.046423 8.408049 0.000000 0.000000 0.000000 17.426975 3.124899 -4.953728 -1.142798 -6.788490 19.090315 -3.502096 1.197693 -35.219850 -2.279175 9.421251 -27.125026 -4.254002 -1.258441 -9.201125 0.700497 -1.234254 1.238199 2.950473 -0.776512 6.584494 -7.952873 -4.567960 -22.238096 4.665269 -4.804824 27.585462 2.336558 -2.198024 13.326967 0.000000 0.000000 0.000000 -3.137660 -2.371489 -22.590285 12.073185 -19.882603 2.150180 20.387156 -4.437143 11.370447 0.000000 0.000000 0.000000 -7.125000 0.000000 0.000000 -4.734380 17.892841 -3.053894 0.000000 0.000000 0.000000 -0.183106 -2.297658 12.475075 -13.419323 -21.898523 -2.607633 -9.286832 1.046791 30.070785 0.000000 0.000000 0.000000 7.125000 0.000000 0.000000 24.656002 58.636536 -8.550928
-22.139308 16.684779 0.475833 -27.235847 91.202078 -22.044633 0.000000 0.000000 0.000000 -18.462201 -5.240845 -8.794750 2.316170 9.495706 27.358603 1.972102 10.966158 -32.357226 0.200899 2.885504 7.960137 0.000000 0.000000 0.000000 17.910473 3.173379 -4.957002 -1.120320 -6.723693 18.899234 -3.455293 -6.211856 -37.668487 -2.792765 10.351394 -30.122768 -3.840272 -1.307334 -9.333323 0.838950 -1.350916 1.214690 2.843668 -0.821716 6.636969 -7.883666 -4.228919 -22.416758 4.793814 -4.365668 27.869050 2.461319 -1.976703 13.448193 0.000000 0.000000 0.000000 -3.064336 -3.707936 -22.091422 10.703771 -17.832805 1.684122 20.762927 -4.478240 12.540845 0.000000 0.000000 0.000000 -7.125000 0.000000 0.000000 -4.499631 16.624793 -3.033695 0.000000 0.000000 0.000000 -0.219182 -2.350265 12.723741 -13.426693 -21.909190 -2.610321 -9.263085 1.018004 30.154496 0.000000 0.000000 0.000000 7.125000 0.000000 0.000000 24.746323 58.706504 -8.626895
-22.145105 16.686604 0.476821 -25.667131 91.227088 -20.478638 0.000000 0.000000 0.000000 -18.392804 -5.067446 -8.943654 2.330758 9.523415 27.446745 1.970630 10.688301 -32.153561 0.121395 2.245195 6.183878 0.000000 0.000000 0.000000 17.966876 3.416504 -4.803648 -1.107544 -6.686453 18.789698 -3.075743 -13.404703 -39.829176 -2.693782 10.181736 -29.567674 -3.831384 -1.288919 -9.277166 0.852596 -1.330784 1.184574 2.857189 -0.810119 6.571430 -7.899062 -3.951376 -22.193222 4.960460 -4.023921 27.743286 2.592646 -1.807059 13.325737 0.000000 0.000000 0.000000 -3.038680 -3.838417 -22.185942 10.528048 -17.561282 1.630636 20.359789 -4.263052 12.931696 0.000000 0.000000 0.000000 -7.125000 0.000000 0.000000 -4.791678 16.249745 -3.271029 0.000000 0.000000 0.000000 -0.221428 -2.286678 12.839464 -13.449423 -21.942125 -2.618821 -9.229467 0.916329 30.056179 0.000000 0.000000 0.000000 7.125000 0.000000 0.000000 24.702861 58.610729 -8.553157
-22.145946 16.677596 0.476073 -36.503899 91.350543 -31.460168 0.000000 0.000000 0.000000 -18.716576 -4.951130 -8.773986 2.326072 9.514507 27.418454 2.014089 10.540098 -32.309508 0.254081 3.243424 8.957238 0.000000 0.000000 0.000000 17.655020 3.291867 -4.710751 -1.116755 -6.713102 18.868279 -2.304138 -20.061835 -41.310423 -2.123671 9.118705 -26.167669 -4.192987 -1.341971 -9.197104 0.860518 -1.364029 1.177212 3.065876 -0.839047 6.531034 -7.399042 -3.395462 -22.317957 4.477959 -3.234413 28.099732 2.467863 -1.471887 13.414976 0.000000 0.000000 0.000000 -3.089881 -3.674996 -23.269968 10.505708 -17.526702 1.623940 21.069812 -3.958610 12.151774 0.000000 0.000000 0.000000 -7.125000 0.000000 0.000000 -4.273409 17.008914 -2.844720 0.000000 0.000000 0.000000 -0.360949 -2.228861 12.963307 -13.408831 -21.883245 -2.603660 -9.237883 0.893504 29.868862 0.000000 0.000000 0.000000 7.125000 0.000000 0.000000 24.547034 58.443923 -8.394995
-22.146449 16.683837 0.474266 -48.440464 91.670590 -43.458268 0.000000 0.000000 0.000000 -19.252986 -5.206665 -8.421580 2.276366 9.419381 27.116325 1.987466 10.771711 -32.312174 0.240251 3.154408 8.708896 0.000000 0.000000 0.000000 17.141751 3.133926 -4.895399 -1.158582 -6.833550 19.223228 -2.098827 -21.858145 -41.994408 -2.733734 10.249865 -29.790659 -4.600483 -1.320917 -9.134257 0.721460 -1.283450 1.171048 3.162360 -0.810449 6.489119 -6.712194 -2.907021 -22.584970 3.916439 -2.583790 28.267385 2.249054 -1.189577 13.469883 0.000000 0.000000 0.000000 -2.894075 -3.580949 -25.285452 10.471653 -17.473893 1.613754 21.699537 -4.322514 11.819311 0.000000 0.000000 0.000000 -7.125000 0.000000 0.000000 -3.822951 17.304788 -2.518340 0.000000 0.000000 0.000000 -0.321655 -2.199332 12.769688 -13.391826 -21.858638 -2.597336 -9.233902 0.935395 29.828754 0.000000 0.000000 0.000000 7.125000 0.000000 0.000000 24.519929 58.406934 -8.362848
-22.148157 16.678920 0.470482 -32.884426 91.432716 -27.771835 0.000000 0.000000 0.000000 -18.723380 -5.160545 -8.674042 2.287062 9.440139 27.182027 1.935131 10.898634 -32.089065 0.163165 2.586926 7.131639 0.000000 0.000000 0.000000 17.628330 3.091675 -5.035597 -1.155190 -6.823997 19.194948 -2.175922 -21.582253 -42.081210 -1.079187 -6.602894 18.544244 -4.127458 -1.365348 -9.279397 0.964180 -1.406713 1.083329 3.131340 -0.856737 6.482832 -6.132065 -2.337867 -22.542489 3.221384 -1.756542 28.121583 2.021075 -0.863572 13.329408 0.000000 0.000000 0.000000 -2.507906 -3.785218 -29.667615 10.067186 -16.844436 1.494454 22.203801 -7.312154 11.403200 0.000000 0.000000 0.000000 -7.125000 0.000000 0.000000 -3.455070 17.703574 -2.245064 0.000000 0.000000 0.000000 -0.535169 -2.165693 12.939254 -13.348936 -21.796382 -2.581403 -9.277495 1.011498 29.992418 0.000000 0.000000 0.000000 7.125000 0.000000 0.000000 24.603673 58.563916 -8.487835
